HIERARCHY
ROOT Hips
{
	OFFSET 0.000000 0.000000 0.000000
	CHANNELS 6 Xposition Yposition Zposition Xrotation Yrotation Zrotation
	JOINT LeftUpLeg_virtual
	{
		OFFSET 0.000000 0.000000 0.000000
		CHANNELS 3 Xrotation Yrotation Zrotation
		JOINT LeftUpLeg
		{
			OFFSET 10.205400 -3.823500 0.155100
			CHANNELS 3 Xrotation Yrotation Zrotation
			JOINT LeftLeg
			{
				OFFSET 0.708757 -12.982077 0.567790
				CHANNELS 3 Xrotation Yrotation Zrotation
				JOINT LeftFoot
				{
					OFFSET -0.708756 -10.717838 -2.184338
					CHANNELS 3 Xrotation Yrotation Zrotation
					JOINT LeftToeBase
					{
						OFFSET 0.108149 -7.191104 7.560241
						CHANNELS 3 Xrotation Yrotation Zrotation
						JOINT LeftToe_End
						{
							OFFSET 0.070230 0.081724 4.490308
							CHANNELS 3 Xrotation Yrotation Zrotation
							End Site
							{
								OFFSET 0 0 0
							}
						}
					}
				}
			}
		}
	}
	JOINT RightUpLeg_virtual
	{
		OFFSET 0.000000 0.000000 0.000000
		CHANNELS 3 Xrotation Yrotation Zrotation
		JOINT RightUpLeg
		{
			OFFSET -10.205400 -3.823500 0.005500
			CHANNELS 3 Xrotation Yrotation Zrotation
			JOINT RightLeg
			{
				OFFSET -0.708756 -12.982134 0.610632
				CHANNELS 3 Xrotation Yrotation Zrotation
				JOINT RightFoot
				{
					OFFSET 0.708754 -10.717769 -1.945823
					CHANNELS 3 Xrotation Yrotation Zrotation
					JOINT RightToeBase
					{
						OFFSET -0.108140 -7.191069 7.372968
						CHANNELS 3 Xrotation Yrotation Zrotation
						JOINT RightToe_End
						{
							OFFSET -0.070227 0.081735 4.479403
							CHANNELS 3 Xrotation Yrotation Zrotation
							End Site
							{
								OFFSET 0 0 0
							}
						}
					}
				}
			}
		}
	}
	JOINT Spine_virtual
	{
		OFFSET 0.000000 0.000000 0.000000
		CHANNELS 3 Xrotation Yrotation Zrotation
		JOINT Spine
		{
			OFFSET 0.000000 6.876099 0.125700
			CHANNELS 3 Xrotation Yrotation Zrotation
			JOINT Spine1
			{
				OFFSET 0.000000 5.730043 0.104720
				CHANNELS 3 Xrotation Yrotation Zrotation
				JOINT Spine1_split
				{
					OFFSET 0.000000 5.730043 0.104720
					CHANNELS 3 Xrotation Yrotation Zrotation
					JOINT Spine2
					{
						OFFSET 0.000000 5.730043 0.104720
						CHANNELS 3 Xrotation Yrotation Zrotation
						JOINT Neck_virtual
						{
							OFFSET 0.000000 0.000000 0.000000
							CHANNELS 3 Xrotation Yrotation Zrotation
							JOINT Neck
							{
								OFFSET 0.000000 10.314075 0.188496
								CHANNELS 3 Xrotation Yrotation Zrotation
								JOINT Head
								{
									OFFSET 0.000000 7.643700 -2.377400
									CHANNELS 3 Xrotation Yrotation Zrotation
									JOINT HeadTop_End
									{
										OFFSET 0.000000 43.788605 -13.619600
										CHANNELS 3 Xrotation Yrotation Zrotation
										End Site
										{
											OFFSET 0 0 0
										}
									}
								}
							}
						}
						JOINT LeftShoulder_virtual
						{
							OFFSET 0.000000 0.000000 0.000000
							CHANNELS 3 Xrotation Yrotation Zrotation
							JOINT LeftShoulder
							{
								OFFSET 2.196100 4.412489 0.087492
								CHANNELS 3 Xrotation Yrotation Zrotation
								JOINT LeftShoulder_split
								{
									OFFSET 2.196100 4.412489 0.087492
									CHANNELS 3 Xrotation Yrotation Zrotation
									JOINT LeftArm
									{
										OFFSET 8.771219 -2.981674 -0.026999
										CHANNELS 3 Xrotation Yrotation Zrotation
										JOINT LeftForeArm
										{
											OFFSET 8.512804 0.000000 -0.000000
											CHANNELS 3 Xrotation Yrotation Zrotation
											JOINT LeftHand
											{
												OFFSET 18.484802 0.000000 -0.000000
												CHANNELS 3 Xrotation Yrotation Zrotation
												End Site
												{
													OFFSET 0 0 0
												}
											}
										}
									}
								}
							}
						}
						JOINT RightShoulder_virtual
						{
							OFFSET 0.000000 0.000000 0.000000
							CHANNELS 3 Xrotation Yrotation Zrotation
							JOINT RightShoulder
							{
								OFFSET -2.196100 4.412496 0.070690
								CHANNELS 3 Xrotation Yrotation Zrotation
								JOINT RightShoulder_split
								{
									OFFSET -2.196100 4.412496 0.070690
									CHANNELS 3 Xrotation Yrotation Zrotation
									JOINT RightArm
									{
										OFFSET -8.771282 -2.981682 -0.094208
										CHANNELS 3 Xrotation Yrotation Zrotation
										JOINT RightForeArm
										{
											OFFSET -8.494598 0.000000 0.000000
											CHANNELS 3 Xrotation Yrotation Zrotation
											JOINT RightHand
											{
												OFFSET -18.483803 0.000000 0.000001
												CHANNELS 3 Xrotation Yrotation Zrotation
												End Site
												{
													OFFSET 0 0 0
												}
											}
										}
									}
								}
							}
						}
					}
				}
			}
		}
	}
}
MOTION
Frames: 4
Frame Time: 0.03333333
7.287270 6.221161 0.559755 0.000000 0.000000 0.000000 -86.819224 65.318868 4.650238 -103.212867 14.516601 2.240417 92.146977 24.624439 -0.800406 20.855404 -1.552016 7.700112 3.594387 0.827375 -0.654453 0.000000 0.000000 0.000000 -96.302566 69.616696 12.991559 -13.015118 6.643262 6.063349 81.028856 1.889933 -0.539419 8.950588 -7.014480 12.713531 -8.420844 -0.769864 0.954253 0.000000 0.000000 0.000000 -81.426578 66.645270 -3.476328 13.344404 -5.639810 -7.196260 11.414962 -4.263713 -4.862420 0.961941 -0.062333 0.518909 0.000000 0.000000 0.000000 9.904887 -5.406823 -3.586076 -3.413641 6.453506 -16.994853 -28.826127 13.831166 -14.118102 0.000000 0.000000 0.000000 10.356524 -4.849950 -4.053631 3.124336 -7.096917 31.042308 -3.308999 0.199259 -1.251989 -89.967300 26.424726 -56.659489 2.137419 -29.303612 0.938934 0.000000 0.000000 0.000000 11.209481 -4.944983 -3.763777 5.312203 11.531493 -17.862160 14.173022 3.433990 0.156735 -47.186454 34.110433 104.868341 175.968868 72.919871 -175.649666 0.000000 0.000000 0.000000 
7.301168 6.216236 0.530594 0.000000 0.000000 0.000000 -86.373111 65.267642 4.394126 -103.453692 14.680640 2.229388 91.892197 24.479511 -0.850357 20.709981 -1.906425 7.748177 3.552255 0.797227 -0.464705 0.000000 0.000000 0.000000 -95.549265 69.382585 12.130413 -13.119350 6.481843 6.100062 81.161034 1.894090 -0.610416 9.004337 -6.914854 12.602143 -8.564380 -0.755546 0.970371 0.000000 0.000000 0.000000 -80.965834 66.590998 -3.671700 13.250614 -5.627188 -7.141224 11.435394 -4.345563 -4.801182 1.143787 0.227242 0.399716 0.000000 0.000000 0.000000 9.785352 -5.510217 -3.547729 -3.308067 6.384878 -17.025112 -28.673541 13.507011 -14.157753 0.000000 0.000000 0.000000 10.378509 -4.937779 -3.953667 3.006399 -6.934099 30.749850 -2.894786 -0.069079 -0.736240 -89.925663 26.159758 -56.886156 2.069752 -29.549526 0.770494 0.000000 0.000000 0.000000 11.175947 -5.046187 -3.710937 5.297109 11.642332 -17.596591 14.489895 3.340302 0.213616 -47.222555 34.127474 105.020005 176.120485 72.818423 -175.776489 0.000000 0.000000 0.000000 
7.302707 6.197031 0.482792 0.000000 0.000000 0.000000 -86.119171 65.229550 4.239843 -103.704866 14.951134 2.332642 91.641516 24.294045 -0.949317 20.259678 -2.285644 8.040345 3.540758 0.751427 -0.300268 0.000000 0.000000 0.000000 -94.649927 69.128775 11.129617 -13.178006 6.286204 6.098284 81.308696 2.067896 -0.693527 9.021660 -6.743861 12.789206 -8.871191 -0.758325 0.936126 0.000000 0.000000 0.000000 -80.649125 66.638344 -3.698072 13.175842 -5.610598 -7.001109 11.419801 -4.443172 -4.691086 1.054674 0.544992 0.068832 0.000000 0.000000 0.000000 9.623220 -5.633926 -3.471399 -2.906588 6.223544 -17.203505 -28.469311 12.988969 -14.175883 0.000000 0.000000 0.000000 10.364167 -5.040913 -3.796284 2.816904 -6.702741 30.449916 -2.411589 -0.274230 -0.066481 -89.688778 25.751080 -57.468337 2.157677 -29.211234 0.681210 0.000000 0.000000 0.000000 11.104799 -5.153429 -3.566752 5.219736 11.697058 -17.260795 14.612116 3.320582 0.182106 -47.131444 34.444606 105.034267 176.173200 73.141306 -175.911973 0.000000 0.000000 0.000000 
7.279390 6.170614 0.437674 0.000000 0.000000 0.000000 -86.103031 65.216511 4.255829 -103.895032 15.283525 2.512444 91.500028 24.096276 -1.079924 19.512783 -2.637269 8.599917 3.608148 0.693636 -0.197391 0.000000 0.000000 0.000000 -93.841745 68.901507 10.264262 -13.111637 6.047829 6.058739 81.334091 2.334427 -0.816029 8.796934 -6.628318 13.156093 -9.179120 -0.774247 0.874600 0.000000 0.000000 0.000000 -80.534692 66.807146 -3.516944 13.132646 -5.565262 -6.830444 11.358605 -4.518082 -4.565802 0.889264 0.836779 -0.196783 0.000000 0.000000 0.000000 9.447610 -5.735090 -3.382113 -2.286424 5.949634 -17.512854 -28.244808 12.342932 -14.191532 0.000000 0.000000 0.000000 10.294846 -5.125203 -3.622335 2.609961 -6.460897 30.176544 -2.121526 -0.236101 0.421258 -89.412169 25.183261 -58.144581 2.353877 -28.476648 0.658244 0.000000 0.000000 0.000000 10.991017 -5.228245 -3.391231 5.130315 11.644207 -16.962485 14.451878 3.440953 0.148053 -47.008975 35.022587 104.942722 176.227063 73.629480 -176.135716 0.000000 0.000000 0.000000 
